<svg width="32" height="33" viewBox="0 0 32 33" fill="none" xmlns="http://www.w3.org/2000/svg">
<path d="M24.4206 3.88235C27.2244 3.88235 29.8474 4.7947 32 6.36705L29.9016 11.977C28.4046 10.5093 26.4483 9.69864 24.4206 9.70587C19.8982 9.70587 16.2804 13.5882 16.2804 18.4412C16.2804 23.2941 19.8982 27.1764 24.4206 27.1764C26.2838 27.1764 27.9842 26.5164 29.359 25.3906L31.4211 30.9229C29.308 32.2879 26.887 33.0062 24.4206 33C20.8224 33 17.3716 31.4661 14.8273 28.7358C12.283 26.0055 10.8536 22.3024 10.8536 18.4412C10.8536 14.5799 12.283 10.8768 14.8273 8.14652C17.3716 5.41622 20.8224 3.88235 24.4206 3.88235V3.88235ZM5.42679 0C6.86607 0 8.2464 0.613548 9.26412 1.70567C10.2818 2.79779 10.8536 4.27903 10.8536 5.82352C10.8536 7.36802 10.2818 8.84925 9.26412 9.94137C8.2464 11.0335 6.86607 11.647 5.42679 11.647C3.98752 11.647 2.60719 11.0335 1.58947 9.94137C0.57175 8.84925 0 7.36802 0 5.82352C0 4.27903 0.57175 2.79779 1.58947 1.70567C2.60719 0.613548 3.98752 0 5.42679 0V0ZM5.42679 3.88235C4.94704 3.88235 4.48693 4.08686 4.14769 4.45091C3.80845 4.81495 3.61786 5.30869 3.61786 5.82352C3.61786 6.33835 3.80845 6.8321 4.14769 7.19614C4.48693 7.56018 4.94704 7.7647 5.42679 7.7647C5.90655 7.7647 6.36666 7.56018 6.7059 7.19614C7.04514 6.8321 7.23573 6.33835 7.23573 5.82352C7.23573 5.30869 7.04514 4.81495 6.7059 4.45091C6.36666 4.08686 5.90655 3.88235 5.42679 3.88235Z" fill="#190D61"/>
</svg>
