<svg width="20" height="20" viewBox="0 0 20 20" fill="none" xmlns="http://www.w3.org/2000/svg">
<path d="M15.2629 2.35294C17.0153 2.35294 18.6546 2.90588 20 3.85882L18.6885 7.25881C17.7529 6.36925 16.5302 5.87796 15.2629 5.88235C12.4364 5.88235 10.1752 8.23528 10.1752 11.1765C10.1752 14.1176 12.4364 16.4706 15.2629 16.4706C16.4274 16.4706 17.4901 16.0706 18.3493 15.3882L19.6382 18.7412C18.3175 19.5684 16.8044 20.0037 15.2629 20C13.014 20 10.8572 19.0704 9.26704 17.4156C7.67685 15.7609 6.78349 13.5166 6.78349 11.1765C6.78349 8.83631 7.67685 6.59202 9.26704 4.93729C10.8572 3.28256 13.014 2.35294 15.2629 2.35294V2.35294ZM3.39175 0C4.29129 0 5.154 0.371847 5.79007 1.03374C6.42615 1.69563 6.78349 2.59335 6.78349 3.52941C6.78349 4.46546 6.42615 5.36318 5.79007 6.02508C5.154 6.68697 4.29129 7.05881 3.39175 7.05881C2.4922 7.05881 1.6295 6.68697 0.99342 6.02508C0.357344 5.36318 0 4.46546 0 3.52941C0 2.59335 0.357344 1.69563 0.99342 1.03374C1.6295 0.371847 2.4922 0 3.39175 0V0ZM3.39175 2.35294C3.0919 2.35294 2.80433 2.47689 2.5923 2.69752C2.38028 2.91815 2.26116 3.21739 2.26116 3.52941C2.26116 3.84143 2.38028 4.14067 2.5923 4.3613C2.80433 4.58193 3.0919 4.70588 3.39175 4.70588C3.6916 4.70588 3.97916 4.58193 4.19119 4.3613C4.40321 4.14067 4.52233 3.84143 4.52233 3.52941C4.52233 3.21739 4.40321 2.91815 4.19119 2.69752C3.97916 2.47689 3.6916 2.35294 3.39175 2.35294Z" fill="#190D61"/>
</svg>
