<svg width="100" height="100" viewBox="0 0 100 100" fill="none" xmlns="http://www.w3.org/2000/svg">
<path d="M73.23 20.78C77.2981 20.78 80.596 17.4714 80.596 13.39C80.596 9.30862 77.2981 6 73.23 6C69.1619 6 65.864 9.30862 65.864 13.39C65.864 17.4714 69.1619 20.78 73.23 20.78Z" fill="white"/>
<path d="M26.52 84.404L2 59.738L2.01 64.046L24.832 87.02C27.454 89.87 31.946 86.574 31.946 86.574L29.792 84.26C29.792 84.26 27.67 85.656 26.572 84.468L26.52 84.404V84.404ZM2 38H28V40H2V38ZM95.14 30.988L98 32.342L69.51 90H66.356L95.14 30.988ZM47.862 26.268L36.396 39.544C35.722 40.384 34.688 40.908 33.534 40.908C33.0461 40.9078 32.5631 40.8113 32.1125 40.6241C31.662 40.4369 31.2528 40.1627 30.9084 39.8172C30.564 39.4716 30.2911 39.0616 30.1053 38.6104C29.9196 38.1593 29.8247 37.6759 29.826 37.188C29.826 36.076 30.304 35.084 31.076 34.406L43.434 20.126C43.7828 19.706 44.22 19.3679 44.7143 19.136C45.2086 18.904 45.748 18.7839 46.294 18.784L64.19 18.774C65.506 18.774 66.682 19.31 67.552 20.138L78.962 31.582L88.416 22.124C89.1013 21.539 89.9729 21.2178 90.874 21.218C92.996 21.218 94.704 22.942 94.704 25.058C94.704 25.984 94.388 26.824 93.844 27.49L82.444 39.01C78.986 42.48 76.198 39.534 76.198 39.534L69.206 32.488L58.272 45.164L68.29 55.21C68.29 55.21 70.4 57.174 69.194 61.09L63.58 86.182C63.3601 87.258 62.7759 88.2253 61.9259 88.9208C61.076 89.6163 60.0122 89.9974 58.914 90C58.2873 89.9993 57.667 89.875 57.0883 89.6345C56.5096 89.394 55.984 89.0418 55.5414 88.5981C55.0989 88.1544 54.748 87.6279 54.5089 87.0487C54.2699 86.4694 54.1472 85.8487 54.148 85.222C54.148 84.806 54.19 84.404 54.302 84.02L58.914 63.426L47.536 52.34L37.746 63.2821C37.746 63.2821 36.158 65.246 31.958 65.094L12.106 65.128C11.0081 65.1463 9.93747 64.7849 9.07525 64.1049C8.21304 63.4249 7.61208 62.468 7.374 61.396C7.23084 60.7891 7.20985 60.1597 7.31224 59.5446C7.41463 58.9295 7.63836 58.3408 7.97041 57.813C8.30245 57.2851 8.73618 56.8286 9.24634 56.47C9.75651 56.1114 10.3329 55.8578 10.942 55.724C11.344 55.634 11.746 55.592 12.138 55.614L29.218 55.656L54.468 26.3L47.862 26.268Z" fill="white"/>
<path d="M91.65 90.336C91.644 92.27 90.042 94 88.12 94H30V96H88.112C91.346 96.018 93.984 93.522 94 90.272L91.65 90.336Z" fill="white"/>
</svg>
