<svg width="50" height="50" viewBox="0 0 50 50" fill="none" xmlns="http://www.w3.org/2000/svg">
<path fill-rule="evenodd" clip-rule="evenodd" d="M50 0H0V50H50V0ZM18.75 10.4167C18.1975 10.4167 17.6676 10.6362 17.2769 11.0269C16.8862 11.4176 16.6667 11.9475 16.6667 12.5V37.5C16.6667 38.0525 16.8862 38.5824 17.2769 38.9731C17.6676 39.3638 18.1975 39.5833 18.75 39.5833C19.3025 39.5833 19.8324 39.3638 20.2231 38.9731C20.6138 38.5824 20.8333 38.0525 20.8333 37.5V27.0833H31.25C31.8025 27.0833 32.3324 26.8638 32.7231 26.4731C33.1138 26.0824 33.3333 25.5525 33.3333 25C33.3333 24.4475 33.1138 23.9176 32.7231 23.5269C32.3324 23.1362 31.8025 22.9167 31.25 22.9167H20.8333V14.5833H31.25C31.8025 14.5833 32.3324 14.3638 32.7231 13.9731C33.1138 13.5824 33.3333 13.0525 33.3333 12.5C33.3333 11.9475 33.1138 11.4176 32.7231 11.0269C32.3324 10.6362 31.8025 10.4167 31.25 10.4167H18.75Z" fill="white"/>
</svg>
