<svg width="22" height="29" viewBox="0 0 22 29" fill="none" xmlns="http://www.w3.org/2000/svg">
<path d="M11 0C8.08368 0.00347558 5.28779 1.17534 3.22563 3.25854C1.16348 5.34174 0.00345217 8.16617 1.17029e-05 11.1123C-0.00348119 13.5198 0.774991 15.862 2.21601 17.7796C2.21601 17.7796 2.51601 18.1786 2.56501 18.2362L11 28.2857L19.439 18.2312C19.483 18.1776 19.784 17.7796 19.784 17.7796L19.785 17.7766C21.2253 15.8598 22.0034 13.5187 22 11.1123C21.9965 8.16617 20.8365 5.34174 18.7744 3.25854C16.7122 1.17534 13.9163 0.00347558 11 0ZM11 15.1531C10.2089 15.1531 9.43552 14.9161 8.77772 14.4721C8.11993 14.0281 7.60724 13.397 7.30449 12.6586C7.00174 11.9202 6.92252 11.1078 7.07686 10.3239C7.2312 9.54009 7.61217 8.82008 8.17158 8.25496C8.73099 7.68984 9.44372 7.30499 10.2196 7.14908C10.9956 6.99316 11.7998 7.07318 12.5307 7.37902C13.2616 7.68486 13.8863 8.20279 14.3259 8.8673C14.7654 9.53181 15 10.3131 15 11.1123C14.9987 12.1835 14.5768 13.2106 13.827 13.9681C13.0771 14.7256 12.0605 15.1517 11 15.1531Z" fill="#190D61"/>
</svg>
