<svg width="22" height="29" viewBox="0 0 22 29" fill="none" xmlns="http://www.w3.org/2000/svg">
<path d="M11 0C8.08368 0.00356334 5.28779 1.20502 3.22563 3.34083C1.16348 5.47663 0.00345217 8.37238 1.17029e-05 11.3929C-0.00348119 13.8612 0.774991 16.2626 2.21601 18.2286C2.21601 18.2286 2.51601 18.6377 2.56501 18.6967L11 29L19.439 18.6915C19.483 18.6366 19.784 18.2286 19.784 18.2286L19.785 18.2255C21.2253 16.2603 22.0034 13.8601 22 11.3929C21.9965 8.37238 20.8365 5.47663 18.7744 3.34083C16.7122 1.20502 13.9163 0.00356334 11 0V0ZM11 15.5357C10.2089 15.5357 9.43552 15.2927 8.77772 14.8375C8.11993 14.3823 7.60724 13.7353 7.30449 12.9783C7.00174 12.2213 6.92252 11.3883 7.07686 10.5846C7.2312 9.78099 7.61217 9.0428 8.17158 8.46341C8.73099 7.88403 9.44372 7.48946 10.2196 7.3296C10.9956 7.16975 11.7998 7.25179 12.5307 7.56536C13.2616 7.87892 13.8863 8.40992 14.3259 9.09121C14.7654 9.7725 15 10.5735 15 11.3929C14.9987 12.4912 14.5768 13.5441 13.827 14.3208C13.0771 15.0974 12.0605 15.5343 11 15.5357V15.5357Z" fill="#7B0303"/>
</svg>
